# xmcd
#
# Track frame offsets: 
#        150
#        23511
#        35619
#        50023
#        63908
#        76928
#        98937
#        113284
#        132254
#        147231
#        165943
#        174286
#        185480
#        204672
#        221863
#        239606
#
# Disc length: 3396 seconds
#
# Revision: 0
# Processed by: cddbd v1.5.2PL0 Copyright (c) Steve Scherf et al.
# Submitted via: ExactAudioCopy v0.99pb3
#
DISCID=d70d4210
DTITLE=Lynn Rice - A Journey into Lynnland
DYEAR=2008
DGENRE=Blues
TTITLE0=Over the Rainbow
TTITLE1=You were meant for me
TTITLE2=Smile
TTITLE3=Stardust
TTITLE4=Am I blue
TTITLE5=I wish you love
TTITLE6=Dream a littel dream
TTITLE7=Memories (Cats)
TTITLE8=Rock-a-Bye your baby
TTITLE9=The man I love
TTITLE10=The outskirts of town
TTITLE11=I left my heart in San Francisco
TTITLE12=The man that got away
TTITLE13=Medley - Almost like being in love - This can't be love
TTITLE14=Sentimental journey
TTITLE15=A boy like you
EXTD=
EXTT0=
EXTT1=
EXTT2=
EXTT3=
EXTT4=
EXTT5=
EXTT6=
EXTT7=
EXTT8=
EXTT9=
EXTT10=
EXTT11=
EXTT12=
EXTT13=
EXTT14=
EXTT15=
PLAYORDER=
